<svg xmlns="http://www.w3.org/2000/svg" viewBox="0 0 283.46 283.46"><defs><style>.cls-1{fill:#fff;stroke:#fff;}.cls-1,.cls-3{stroke-miterlimit:10;}.cls-2{fill:#77b185;}.cls-3{fill:none;stroke:#659871;stroke-width:0.5px;}</style></defs><g id="Layer_3" data-name="Layer 3"><circle class="cls-1" cx="139.74" cy="121.4" r="89.96"/></g><g id="Layer_1" data-name="Layer 1"><path class="cls-2" d="M194.4,71.89c-.08,1.41-.08,9.41-4.42,11.71.06-.23-11,4.66-20,2.83-.34-.07-.68-.15-1-.24l5.91-5c7.13-6.06,5.07-8.2,10.35-9.89l-.07.07C191.85,70.83,189.38,73,194.4,71.89Z"/><path class="cls-2" d="M190,83.6c2.38,1.53,0,1.78,2.38,3.66-1.19,1.87-5.51,1.95-8.12,5.87-3.54-.85-13.54-.81-14-6.3a.5.5,0,0,0-.31-.25l0-.15C178.93,88.26,190,83.37,190,83.6Z"/><path class="cls-2" d="M186.45,130.79c-1.79,9.06,2.55,4.59.25,8.3s-3,1.59-3.35,2.64c0,0-14.62-6.91-15.87-9.71,3.18,2,10.05,1.1,11.35-5s3.09-5.63,3.25-5.57h0C183.44,122.62,188,123.07,186.45,130.79Z"/><path class="cls-2" d="M174.74,59.43c3,2,14.34,7.93,10.46,11.84C179.92,73,182,75.1,174.85,81.16l-5.91,5c-.33-.09-.66-.18-1-.3,1.28-7.78,0-25.78,0-25.78v0l0,0C169.72,58.91,171.68,57.38,174.74,59.43Z"/><path class="cls-2" d="M173.17,119.3c.26,2.17,11-4.73,10.72-1.66s-2.1,1.08-2.17,3.06a.93.93,0,0,0,.36.73c-.16-.06-2-.53-3.25,5.57s-8.17,7-11.35,5c-.13-.09-.25-.17-.37-.27l.37-.53C171.16,128.83,173.17,119.3,173.17,119.3Z"/><path class="cls-2" d="M167.11,131.75c.12.1.24.18.37.27,1.25,2.8,15.87,9.71,15.87,9.71-.35,1.06.12,13.37-9.69,6.45-2.75-2.85-3.68-8-6.23-10.12-2.18-1.86-1.11-5.84-1.94-6.33a3,3,0,0,0,2-.51Z"/><path class="cls-2" d="M173.81,111.64c1,2.81-2.3,5.87-.64,7.66,0,0-2,9.53-5.69,11.92a3,3,0,0,1-2,.51c-.14-.09-.34-.07-.62.08-.49.26-1.49.86-2.72,1.61l-.26-.43a22.46,22.46,0,0,0,2.85-2C164.87,127.34,167.94,112.53,173.81,111.64Z"/><path class="cls-2" d="M170,86.43l0,.15c-.53-.13-1.33.7-1.67,1a287.81,287.81,0,0,0-20.58,37.3l-1.1-.5s1.54-8.51-5.19-14.21-18.72-2.89-19.23-28.09c2.55,3.32,4.17,12,12.68,15.66s12.68,13.28,14.13,20c3-6.38,18.32-31,18.32-31a.66.66,0,0,1,0-.09l.55.1c0,.2-.08.38-.13.56l1.26-1.06C169.27,86.28,169.61,86.36,170,86.43Z"/><path class="cls-2" d="M168,85.89c-.05.28-.1.55-.15.8l-.55-.1c-.2-.92-1.94-8.32-6.73-11.68-5.1-3.57-11.05-7.5-8.67-13.11.68-1.53,1.64-3,2.93-3.52,3.44-1.41,7.78,1.1,10.17-.81,1.11,0,1.64,1.88,3,2.62v0S169.24,78.11,168,85.89Z"/><path class="cls-2" d="M167.26,86.59a.66.66,0,0,0,0,.09c-1.36-.51-9.13.32-13.73-6.49-1.53-1.19-9.36,3.66-9.36,0A14.15,14.15,0,0,1,150.49,66c.08-.3.29-1.23.66-2.36a16.18,16.18,0,0,1,.71-1.82c-2.38,5.61,3.57,9.54,8.67,13.11C165.32,78.27,167.06,85.67,167.26,86.59Z"/><path class="cls-2" d="M161.89,133l.26.43c-3.55,2.19-9,5.77-9.66,6.81,3.32,1.66,7.53.77,5.74,24.51-1.27-1.4-4.46-8.55-6.76-11-.64-5.11,1.66-13.09-.64-12a5.34,5.34,0,0,0-.88.58l-.83-1.15C153.91,137.67,158.79,134.89,161.89,133Z"/><path class="cls-2" d="M149.12,141.16l.83,1.15c-3.52,2.69-13.16,12.87-13.16,13.75s-3.58,21.07-3.58,25.15c-1.4,0-1.4,1.41-1.4-3.19,0,0-4.81-10.76-7.28-13.4-3.23,2-6.72,7.91-12.76,8.08s-9.37,1.19-10.9,2.47c3.75-5.62,17.45-15.49,21.62-12.85-.77-3-7.58-12.77-11.32-15.58,0-.56-.06-1.43-.13-2.07,1.95,2.2,10.6,11.36,11.11,13.14.34-5.28-1.28-10.3,6.72-23.58,1.45,5.62,1.79,17.62-3.57,28.26A79.77,79.77,0,0,1,132,174.83c2.47-26,11.15-46,14.55-50.47l1.1.5a153.56,153.56,0,0,0-9.57,26.82A48.68,48.68,0,0,1,149.12,141.16Z"/><path class="cls-2" d="M120.28,113.38c2.38.26,2.72,1.11,2.38,2.81s-6,14.13-4.94,19.49c-1.39,3.42-5.49,5.44-6.53,7.53h0a90.31,90.31,0,0,1,2.88-31.87C116.09,109.19,117.9,113.12,120.28,113.38Z"/><path class="cls-2" d="M106.74,106.32c3.49-.51,8,.17,7.32,5a90.31,90.31,0,0,0-2.88,31.87h0a1.92,1.92,0,0,0-.19.48,2.67,2.67,0,0,1-.45-.48C106.41,138,95,104.29,95,104.29,98.09,102.5,103.09,105.13,106.74,106.32Z"/><path class="cls-2" d="M111,144.67c.07.64.13,1.51.13,2.07-1.45,1.2-9.34,9.44-14.47,10.56S83.68,160,81.38,161,73.64,166,75.6,151.6c1,.55,1.1-3.92,4.93-.86s19.49-1.7,23.24-4.51a9.77,9.77,0,0,1,2.64-1.41c.51-.11,1-.22,1.41-.34h0a7.15,7.15,0,0,1,3.14.15Z"/><path class="cls-2" d="M107.86,144.47h0a7.37,7.37,0,0,0-1.41.34c-2.86.63-6.83,1.06-10.3-.12a34.7,34.7,0,0,0-11.49-2.13c-1.19,0-6.74-7.25-11.49-4.51-3.07-1.53.17-9.44.59-13.7s4.15-3.67,5.52-7.19c0-.16.05-.35.09-.55,0,0,7.93,3.61,8.78,10.57s6.72,5,7.83,8.41,11.44,10.32,14.61,7.61a2.67,2.67,0,0,0,.45.48,1.42,1.42,0,0,0,0,.2s0,0,0,0h0a1.82,1.82,0,0,0,0,.69A7.15,7.15,0,0,0,107.86,144.47Z"/><path class="cls-2" d="M110.55,143.21C107.38,145.92,97,139,95.94,135.6s-7-1.45-7.83-8.41-8.78-10.57-8.78-10.57c1-4.78,8.53-19.66,15.65-12.33C95,104.29,106.41,138,110.55,143.21Z"/><path class="cls-2" d="M106.41,144.82a9.77,9.77,0,0,0-2.64,1.41c-3.75,2.81-19.41,7.58-23.24,4.51s-4,1.41-4.93.86c-1.79-.34-7.75.85-2.47-13.54,4.75-2.74,10.3,4.51,11.49,4.51a34.7,34.7,0,0,1,11.49,2.13C99.58,145.88,103.55,145.45,106.41,144.82Z"/><path class="cls-3" d="M111,143.93a1.82,1.82,0,0,0,0,.69l0,0c1.95,2.2,10.6,11.36,11.11,13.14.34-5.28-1.28-10.3,6.72-23.58,1.45,5.62,1.79,17.62-3.57,28.26A79.77,79.77,0,0,1,132,174.83c2.47-26,11.15-46,14.55-50.47,0,0,1.54-8.51-5.19-14.21s-18.72-2.89-19.23-28.09c2.55,3.32,4.17,12,12.68,15.66s12.68,13.28,14.13,20c3-6.38,18.32-31,18.32-31-1.36-.51-9.13.32-13.73-6.49-1.53-1.19-9.36,3.66-9.36,0A14.15,14.15,0,0,1,150.49,66c.08-.3.29-1.23.66-2.36a16.18,16.18,0,0,1,.71-1.82c.68-1.53,1.64-3,2.93-3.52,3.44-1.41,7.78,1.1,10.17-.81,1.11,0,1.64,1.88,3,2.62l0,0c1.7-1.2,3.66-2.73,6.72-.68s14.34,7.93,10.46,11.84l-.07.07c6.72-.51,4.25,1.62,9.27.55-.08,1.41-.08,9.41-4.42,11.71,2.38,1.53,0,1.78,2.38,3.66-1.19,1.87-5.51,1.95-8.12,5.87-3.54-.85-13.54-.81-14-6.3a.5.5,0,0,0-.31-.25c-.53-.13-1.33.7-1.67,1a287.81,287.81,0,0,0-20.58,37.3,153.56,153.56,0,0,0-9.57,26.82,48.68,48.68,0,0,1,11-10.52c4.79-3.49,9.67-6.27,12.77-8.17a22.46,22.46,0,0,0,2.85-2c.13-3.7,3.2-18.51,9.07-19.4,1,2.81-2.3,5.87-.64,7.66.26,2.17,11-4.73,10.72-1.66s-2.1,1.08-2.17,3.06a.93.93,0,0,0,.36.73"/><path class="cls-3" d="M182.09,121.43c1.35,1.19,5.87,1.64,4.36,9.36-1.79,9.06,2.55,4.59.25,8.3s-3,1.59-3.35,2.64.12,13.37-9.69,6.45c-2.75-2.85-3.68-8-6.23-10.12-2.18-1.86-1.11-5.84-1.94-6.33-.14-.09-.34-.07-.62.08-.49.26-1.49.86-2.72,1.61-3.55,2.19-9,5.77-9.66,6.81,3.32,1.66,7.53.77,5.74,24.51-1.27-1.4-4.46-8.55-6.76-11-.64-5.11,1.66-13.09-.64-12a5.34,5.34,0,0,0-.88.58c-3.52,2.69-13.16,12.87-13.16,13.75s-3.58,21.07-3.58,25.15c-1.4,0-1.4,1.41-1.4-3.19,0,0-4.81-10.76-7.28-13.4-3.23,2-6.72,7.91-12.76,8.08s-9.37,1.19-10.9,2.47c3.75-5.62,17.45-15.49,21.62-12.85-.77-3-7.58-12.77-11.32-15.58-1.45,1.2-9.34,9.44-14.47,10.56S83.68,160,81.38,161,73.64,166,75.6,151.6c-1.79-.34-7.75.85-2.47-13.54-3.07-1.53.17-9.44.59-13.7s4.15-3.67,5.52-7.19c0-.16.05-.35.09-.55,1-4.78,8.53-19.66,15.65-12.33,3.11-1.79,8.11.84,11.76,2,3.49-.51,8,.17,7.32,5,2-2.15,3.84,1.78,6.22,2s2.72,1.11,2.38,2.81-6,14.13-4.94,19.49c-1.39,3.42-5.49,5.44-6.53,7.53a1.92,1.92,0,0,0-.19.48,1.42,1.42,0,0,0,0,.2,0,0,0,0,1,0,0"/><path class="cls-3" d="M167.28,86.68a.66.66,0,0,1,0-.09c-.2-.92-1.94-8.32-6.73-11.68-5.1-3.57-11.05-7.5-8.67-13.11"/><path class="cls-3" d="M168,60.11s1.27,18,0,25.78c-.05.28-.1.55-.15.8s-.08.38-.13.56l1.26-1.06,5.91-5c7.13-6.06,5.07-8.2,10.35-9.89l.11,0"/><path class="cls-3" d="M190,83.6c.06-.23-11,4.66-20,2.83-.34-.07-.68-.15-1-.24s-.66-.18-1-.3a2.29,2.29,0,0,1-.28-.09"/><path class="cls-3" d="M173.17,119.3s-2,9.53-5.69,11.92a3,3,0,0,1-2,.51"/><path class="cls-3" d="M182.09,121.43h0c-.16-.06-2-.53-3.25,5.57s-8.17,7-11.35,5c-.13-.09-.25-.17-.37-.27h0"/><path class="cls-3" d="M183.35,141.73s-14.62-6.91-15.87-9.71"/><path class="cls-3" d="M114.06,111.34a90.31,90.31,0,0,0-2.88,31.87"/><path class="cls-3" d="M95,104.29s11.43,33.68,15.57,38.92a2.67,2.67,0,0,0,.45.48"/><path class="cls-3" d="M79.33,116.62s7.93,3.61,8.78,10.57,6.72,5,7.83,8.41,11.44,10.32,14.61,7.61"/><path class="cls-3" d="M107.82,144.48c-.43.12-.9.23-1.41.34-2.86.63-6.83,1.06-10.3-.12a34.7,34.7,0,0,0-11.49-2.13c-1.19,0-6.74-7.25-11.49-4.51"/><path class="cls-3" d="M110.32,143.69a23.51,23.51,0,0,1-2.46.78"/><path class="cls-3" d="M111.17,146.74c0-.56-.06-1.43-.13-2.07,0-.39-.07-.7-.08-.78s0,0,0,0h0c0,.09,0,.31,0,.69a7.15,7.15,0,0,0-3.14-.15h0a7.37,7.37,0,0,0-1.41.34,9.77,9.77,0,0,0-2.64,1.41c-3.75,2.81-19.41,7.58-23.24,4.51s-4,1.41-4.93.86"/></g></svg>