<svg id="Layer_3" data-name="Layer 3" xmlns="http://www.w3.org/2000/svg" viewBox="0 0 283.46 283.46"><defs><style>.cls-1,.cls-4,.cls-5,.cls-7{fill:#fff;}.cls-1{stroke:#fff;}.cls-1,.cls-3,.cls-4,.cls-6,.cls-7{stroke-miterlimit:10;}.cls-2{fill:#77b185;}.cls-3,.cls-6{fill:none;stroke:#659871;}.cls-3,.cls-7{stroke-width:0.25px;}.cls-4,.cls-7{stroke:#7fa15a;}.cls-4{stroke-width:0.5px;}.cls-6{stroke-width:0.49px;}</style></defs><circle class="cls-1" cx="148.67" cy="131.94" r="89.96"/><path class="cls-2" d="M169.52,115.61c3.75-3.74,6-4.25,9-9-6.89,23.41-30,35.92-31.83,41.87a21.38,21.38,0,0,0-.58,2.36l-.78-.14C146.54,140.46,151.65,122.42,169.52,115.61Z"/><path class="cls-2" d="M165.65,62.68l7.62-8c-2.05,4.93-3.79,26-17.75,36.89,0,0-.81,2.6-3.53,9.92-1,2.74-1.77,4.93-2.41,7l-.23-.07c1-3.34,2-6.28,2.47-7.85,1.1-3.36,2.85-8,2.59-10.17,0,0,1.15-12.17,2.77-15.83S162.8,65.83,165.65,62.68Z"/><path class="cls-2" d="M149.87,192.1c-.12,1.28-.11-.21-.6,2-.08,1.45-.54-.11-1.62,1.86-2.09,3.83-13.94,11.36-22.9,7.79,1-3.06,5.4-1.92,7.55-6.83,2-4.59,12-5.79,15.33-4.36l.61.34v0a35.59,35.59,0,0,0-2.58-7.81v0h0c-.08-.59-1.4-10.06-3-11.54-1.34-1.24-4.28-4.6-12.39-8.37a7.09,7.09,0,0,0-1.24-.45l.15-.53c1.25.36,2.22.66,2.5.79-2.24-1.72-3.83-4.34-5.56-6.76S123.78,155.4,123,155l.26.09c2.79,1.11,10.22,7.58,11.94,11.35a51,51,0,0,1,6.07,4.21c-.64-2-5.3-14.93-6.45-16.4a4.86,4.86,0,0,0-1.43-1.19l.2-.32a6.92,6.92,0,0,0,1.8.93l.11,0c1.53,3.49,2.78,6.7,3.15,7.65.64,1.66,6.7,13.47,6.89,15.38.32-2.36-.65-11.45-.91-16.75a116.77,116.77,0,0,0-1.42-14.56l.73-.16c.17.72.26.42.33.77.12-5.49.89-20.49,1.46-25.59l-.08-.49.36,0c.9-3.34,2.17-7.61,3.32-11.38l.23.07c-1.05,3.41-1.74,6.42-2.7,10.89-1.53,7.15-2.72,25.87-1.53,31.32l.78.14c-1,5.3-.33,10.9-.18,15.35C146,166.17,146.94,182.78,149.87,192.1Z"/><path class="cls-2" d="M148.23,192.87v0a2.7,2.7,0,0,0-.61-.34c-3.06-1.7-6.61-3.49-9.6-3.49-3.19,0-18.51-1.53-22-6.25S104.78,176.1,99.61,168a58.58,58.58,0,0,1,9.31,3.19C120.91,176.24,144.24,186.11,148.23,192.87Z"/><path class="cls-2" d="M148.24,192.89l-.61-.34A2.7,2.7,0,0,1,148.24,192.89Z"/><path class="cls-2" d="M146.58,100.46c.43,3.41-.46,18.35-.55,19.32l-.36,0c-.27-1.66-1.21-7.07-2.32-9.15-1.32-2.47-7.23-8.3-7.62-15.79s-.51-13.15-3.23-21.4c-2.21-5.28,7.23,12.76,8.51,15S146.16,97.06,146.58,100.46Z"/><path class="cls-2" d="M145.64,185h0Z"/><path class="cls-2" d="M144.83,183.78c-.14-.17-.28-.32-.42-.46a31.47,31.47,0,0,0-7-4.86c-.64-.12-7.66.39-10.34-5.87,2.4.37,13.65,5.44,15.75,8.68-2.94-4.47-4.9-9.06-4.9-10.46,1.6,1.85,4.22,7.4,5.37,9.95A32.21,32.21,0,0,0,144.83,183.78Z"/><path class="cls-2" d="M144,145.14l-.73.16a7.58,7.58,0,0,0-.86-2.52c-1.05-1.39-5.91-6.76-8.78-12.3a21.14,21.14,0,0,1-1.81-4.61c1,3-4.15-16.15-2.88-19.92,1.73,3.07,3.26,7,5.62,10s8,13.27,8.68,22.21A60.13,60.13,0,0,0,144,145.14Z"/><path class="cls-2" d="M135.52,153.58l-.11,0a138.25,138.25,0,0,0-9-13.77l.32-.26c1.09,1.56,2.86,3.1,3.24,3.63-.25-5.3-.19-7.6,1.22-11.23,1.59,3.51,1.91,8.61.76,14.1C133.08,148.18,134.38,151,135.52,153.58Z"/><path class="cls-2" d="M133.61,152.7l-.2.32a11.64,11.64,0,0,0-6.74-1.36c-1.2.1-2.38.34-3.7.45-2.9.26-6.47-.05-12.39-3.65,2.49-2,4.28-.31,8.69-1.72C122.73,145.64,130.14,150.57,133.61,152.7Z"/><path class="cls-2" d="M129.15,164.14l-.15.53a8.15,8.15,0,0,0-2.71-.25c-6.51.51-6.64,7.92-11,5.75,1.27-2.43,5-6.5,8-6.32-.74-1-3,.6-9-.18s-5.37-1.93-8.17-4.74c1.53-.76,3.83.77,6.25,1s7.18.19,9.07,2.05C121.44,162,126.1,163.26,129.15,164.14Z"/><path class="cls-2" d="M126.68,139.6l-.32.26a24.9,24.9,0,0,0-1.65-1.91l.2-.19a1.85,1.85,0,0,0,.33.3c.77.45-3.49-5.62-4.44-8.94s-.32-14.29-1.53-17.23,6.7,9,5.93,12.32.17,11.89.7,13.85A5.45,5.45,0,0,0,126.68,139.6Z"/><path class="cls-2" d="M124.91,137.76l-.2.19a6.43,6.43,0,0,0-.66-.59c-2.81-2.17-4.27-2-5.74-1.79s-6.32,3.77-12.26-1.4c1.41-1,.58.64,3.83,0s10.85-.51,12.51,1.34l-.23-.28.39-.33C123.53,136.13,124.41,137.23,124.91,137.76Z"/><path class="cls-2" d="M122.55,134.9l-.39.33c-3-3.64-4.28-5.43-6.57-7.16a4,4,0,0,0-5.22-.12c-2.81,1.9-3.8-1.9-4.31-3.88.51-.39.69.91,3.38,0l.52.18a2.13,2.13,0,0,0,1.77.72c-.59-.3.25,0-1.77-.72a2.1,2.1,0,0,1-.3-1.36c.16-2.27-2.5-3.65-3-3.65a11,11,0,0,1,3.3,0,3.5,3.5,0,0,1,1.59,2.62c.32,1.78-.06,1.35,2.08,2.78a22.09,22.09,0,0,1,4.43,4.85A57.7,57.7,0,0,1,122.55,134.9Z"/><path class="cls-2" d="M111.73,125a2.13,2.13,0,0,1-1.77-.72C112,124.94,111.14,124.68,111.73,125Z"/><path class="cls-3" d="M148.24,192.89v0c-4-6.76-27.32-16.63-39.31-21.68A58.58,58.58,0,0,0,99.61,168c5.17,8.1,13,10.08,16.46,14.81s18.77,6.25,22,6.25c3,0,6.54,1.79,9.6,3.49l.61.34a2.7,2.7,0,0,0-.61-.34c-3.37-1.43-13.31-.23-15.33,4.36-2.15,4.91-6.52,3.77-7.55,6.83,9,3.57,20.81-4,22.9-7.79,1.08-2,1.54-.41,1.62-1.86.49-2.2.48-.71.6-2-2.93-9.32-3.92-25.93-3.92-25.93-.15-4.45-.86-10,.18-15.35a21.38,21.38,0,0,1,.58-2.36c1.85-6,24.94-18.46,31.83-41.87-3.06,4.77-5.27,5.28-9,9-17.87,6.81-23,24.85-24.17,35.07-1.19-5.45,0-24.17,1.53-31.32,1-4.47,1.65-7.48,2.7-10.89.64-2,1.39-4.24,2.41-7,2.72-7.32,3.53-9.92,3.53-9.92,14-10.89,15.7-32,17.75-36.89l-7.62,8c-2.85,3.15-6.85,8.21-8.47,11.87s-2.77,15.83-2.77,15.83c.26,2.17-1.49,6.81-2.59,10.17-.52,1.57-1.45,4.51-2.47,7.85-1.15,3.77-2.42,8-3.32,11.38.09-1,1-15.91.55-19.32s-4.29-9.78-5.57-12-10.72-20.25-8.51-15c2.72,8.25,2.85,13.91,3.23,21.4s6.3,13.32,7.62,15.79c1.11,2.08,2.05,7.49,2.32,9.15l.08.49c-.57,5.1-1.34,20.1-1.46,25.59-.07-.35-.16,0-.33-.77a60.13,60.13,0,0,1-.76-6.95c-.7-8.94-6.32-19.21-8.68-22.21s-3.89-7-5.62-10c-1.27,3.77,3.9,23,2.88,19.92a21.14,21.14,0,0,0,1.81,4.61c2.87,5.54,7.73,10.91,8.78,12.3a7.58,7.58,0,0,1,.86,2.52,116.77,116.77,0,0,1,1.42,14.56c.26,5.3,1.23,14.39.91,16.75-.19-1.91-6.25-13.72-6.89-15.38-.37-.95-1.62-4.16-3.15-7.65-1.14-2.62-2.44-5.4-3.62-7.48,1.15-5.49.83-10.59-.76-14.1-1.41,3.63-1.47,5.93-1.22,11.23-.38-.53-2.15-2.07-3.24-3.63a5.45,5.45,0,0,1-.78-1.54c-.53-2-1.46-10.53-.7-13.85s-7.15-15.26-5.93-12.32.57,13.92,1.53,17.23,5.21,9.39,4.44,8.94a1.85,1.85,0,0,1-.33-.3c-.5-.53-1.38-1.63-2.36-2.86a57.7,57.7,0,0,0-4.5-5.42,22.09,22.09,0,0,0-4.43-4.85c-2.14-1.43-1.76-1-2.08-2.78a3.5,3.5,0,0,0-1.59-2.62,11,11,0,0,0-3.3,0c.51,0,3.17,1.38,3,3.65a2.1,2.1,0,0,0,.3,1.36"/><path class="cls-3" d="M145.63,185h0"/><path class="cls-3" d="M144.89,183.87a7.72,7.72,0,0,1,.73,1.14"/><path class="cls-3" d="M144.83,183.78a32.21,32.21,0,0,1-1.56-3c-1.15-2.55-3.77-8.1-5.37-9.95,0,1.4,2,6,4.9,10.46-2.1-3.24-13.35-8.31-15.75-8.68,2.68,6.26,9.7,5.75,10.34,5.87a31.47,31.47,0,0,1,7,4.86C144.55,183.46,144.69,183.61,144.83,183.78Z"/><path class="cls-3" d="M144.83,183.78l0,0s0,0,0,.05"/><path class="cls-3" d="M145.62,185c-.09-.13-.36-.53-.73-1.14"/><path class="cls-3" d="M145.62,185a0,0,0,0,0,0,0"/><line class="cls-3" x1="145.64" y1="185.03" x2="145.63" y2="185.03"/><path class="cls-3" d="M145.64,185v0a35.59,35.59,0,0,1,2.58,7.81"/><line class="cls-3" x1="145.64" y1="185.04" x2="145.64" y2="185.03"/><path class="cls-3" d="M110,124.26l-.52-.18c-2.69.9-2.87-.4-3.38,0,.51,2,1.5,5.78,4.31,3.88a4,4,0,0,1,5.22.12c2.29,1.73,3.55,3.52,6.57,7.16l.23.28c-1.66-1.85-9.25-2-12.51-1.34s-2.42-1-3.83,0c5.94,5.17,10.79,1.59,12.26,1.4s2.93-.38,5.74,1.79a6.43,6.43,0,0,1,.66.59,24.9,24.9,0,0,1,1.65,1.91,138.25,138.25,0,0,1,9,13.77,6.92,6.92,0,0,1-1.8-.93c-3.47-2.13-10.88-7.06-14.34-6-4.41,1.41-6.2-.25-8.69,1.72,5.92,3.6,9.49,3.91,12.39,3.65,1.32-.11,2.5-.35,3.7-.45a11.64,11.64,0,0,1,6.74,1.36,4.86,4.86,0,0,1,1.43,1.19c1.15,1.47,5.81,14.42,6.45,16.4a51,51,0,0,0-6.07-4.21c-1.72-3.77-9.15-10.24-11.94-11.35L123,155c.76.44,1.35.78,3.07,3.21s3.32,5,5.56,6.76c-.28-.13-1.25-.43-2.5-.79-3.05-.88-7.71-2.14-7.71-2.14-1.89-1.86-6.64-1.79-9.07-2.05s-4.72-1.78-6.25-1c2.8,2.81,2.17,4,8.17,4.74s8.29-.78,9,.18c-3-.18-6.74,3.89-8,6.32,4.34,2.17,4.47-5.24,11-5.75a8.15,8.15,0,0,1,2.71.25,7.09,7.09,0,0,1,1.24.45c8.11,3.77,11,7.13,12.39,8.37,1.61,1.48,2.93,10.95,3,11.54"/><path class="cls-3" d="M110,124.26a2.13,2.13,0,0,0,1.77.72C111.14,124.68,112,124.94,110,124.26Z"/><line class="cls-4" x1="172.65" y1="56.11" x2="155.67" y2="91.24"/><line class="cls-4" x1="177.52" y1="108.8" x2="146.54" y2="147.28"/><line class="cls-4" x1="132.93" y1="74.08" x2="146.14" y2="119.37"/><line class="cls-4" x1="129.26" y1="107.45" x2="142.98" y2="142.18"/><path class="cls-4" d="M122.46,123.45s.71,10.26,2.61,13"/><path class="cls-2" d="M187.31,172.59l-3.2,1.81a16.68,16.68,0,0,1-12.36-.75c-5.08-2.35-15.75,4.45-17.41,7.18l-3.77,9.23c3.62-10.19-2.39-9.55,11.32-19.94,0,0,8.14-5,12.7-2S181,175.56,187.31,172.59Z"/><path class="cls-2" d="M184.11,174.4l3.2-1.81A11.09,11.09,0,0,1,184.11,174.4Z"/><path class="cls-2" d="M184.11,174.4a11.09,11.09,0,0,0,3.2-1.81c0,6.37-3.45,8.48-12.3,7Z"/><path class="cls-2" d="M184.11,174.4l-9.1,5.15-1.43-.26c-9.92-2-12.08.09-16.53,4.42a61.88,61.88,0,0,0-7.64,9.62l-.14-.09c.53-1.17,1-2.23,1.3-3.18l3.77-9.23c1.66-2.73,12.33-9.53,17.41-7.18A16.68,16.68,0,0,0,184.11,174.4Z"/><path class="cls-5" d="M175,179.55l-26.34,14.92s.26-.43.74-1.14a61.88,61.88,0,0,1,7.64-9.62c4.45-4.33,6.61-6.43,16.53-4.42Z"/><path class="cls-2" d="M149.27,193.24l1.3-3.18C150.23,191,149.8,192.07,149.27,193.24Z"/><path class="cls-6" d="M187.31,172.59a11.09,11.09,0,0,1-3.2,1.81,16.68,16.68,0,0,1-12.36-.75c-5.08-2.35-15.75,4.45-17.41,7.18l-3.77,9.23-1.3,3.18c.53-1.17,1-2.23,1.3-3.18,3.62-10.19-2.39-9.55,11.32-19.94,0,0,8.14-5,12.7-2s6.36,7.42,12.72,4.45c0,6.37-3.45,8.48-12.3,7l-1.43-.26c-9.92-2-12.08.09-16.53,4.42a61.88,61.88,0,0,0-7.64,9.62c-.48.71-.74,1.14-.74,1.14"/><path class="cls-4" d="M148.67,195.09s-7.58-2.33-11.92,2"/><path class="cls-7" d="M100.57,168.33s-.33,2.48,10.4,7.33,13.2,3.29,15.5,7.61,17.66,4.94,19.82,7.75"/><path class="cls-4" d="M119.39,149.1c.51-.25,7.46,1.91,11.36,2.56"/></svg>