<svg xmlns="http://www.w3.org/2000/svg" viewBox="0 0 283.46 283.46"><defs><style>.cls-1{fill:#fff;stroke:#fff;}.cls-1,.cls-3{stroke-miterlimit:10;}.cls-2{fill:#77b185;}.cls-3{fill:none;stroke:#659871;stroke-width:0.5px;}</style></defs><g id="Layer_3" data-name="Layer 3"><circle class="cls-1" cx="138.53" cy="125.81" r="89.96"/></g><g id="Layer_6" data-name="Layer 6"><path class="cls-2" d="M200.53,93.46c.91,2.84,2.72,11.52-3.86,12.2,0,0-.43-4.85-.34-8.54S200.44,93.46,200.53,93.46Z"/><path class="cls-2" d="M179.89,99.49a12.34,12.34,0,0,0-.33-1.55,10.4,10.4,0,0,0-.4-1.19h0c2,1.06,7.78-.27,9.75-2.58s6.3-2.47,6.3-2.47a14.19,14.19,0,0,1,5.11,1.19c.06.15.13.34.2.57-.09,0-4.12,0-4.2,3.66s.34,8.54.34,8.54c-3.66,4.42-6.43,8-9.56,7.83,0,0,1.9-3.49,2.92-4.86s-1-2.38-2.64-1.08a11.84,11.84,0,0,0-1.34,1.41s-10.52,1.82-10.72-4.1c.71-.35,1.39-.72,2-1.08a10,10,0,0,0,1.85-1.37,3.51,3.51,0,0,0,.37-.41,2.11,2.11,0,0,0,.18-.27,1.8,1.8,0,0,0,.27-.84A7.34,7.34,0,0,0,179.89,99.49Z"/><path class="cls-2" d="M178.42,95.23a4.93,4.93,0,0,0-1.73-1.78c2.21.36,10.7-7.88,10.7-7.88,3.92-1.11,5.7-1.7,6.51,1.49s1.15,2.94,1.32,4.64c0,0-4.32.16-6.3,2.47s-7.76,3.64-9.75,2.58h0A8.56,8.56,0,0,0,178.42,95.23Z"/><path class="cls-2" d="M187.39,107.55c1.62-1.3,3.66-.28,2.64,1.08s-2.92,4.86-2.92,4.86c-1.93,2.29-5.67,4-10.87,4.08a18.4,18.4,0,0,1-4.89,2.13h0s1.06-2.54,6.43-4.33c4.09-1.37,6.6-4.44,8.27-6.4A11.84,11.84,0,0,1,187.39,107.55Z"/><path class="cls-2" d="M169.44,93.42c-.95.09-1.62.16-1.71.15-.28,0-.81-.17-1.47-.32a9.83,9.83,0,0,0-1.12-.53s3.19-5.36-.9-12.51c-2-3.48,3.32-7.58,3.32-7.58,2.64-2.72,7.07-2.63,11.58.26,5.87.68,6.72.6,6.55,3.57,1.7,2.64,4.26,5.88,1.7,9.11,0,0-8.49,8.24-10.7,7.88h0a2.8,2.8,0,0,0-1.37-.39c-.26,0-.55,0-.85,0C172.86,93.08,170.84,93.27,169.44,93.42Z"/><path class="cls-2" d="M167.36,107.44a5.77,5.77,0,0,0,3.55-.4l.23-.11c.69-.36,1.44-.73,2.21-1.09h0c.66-.32,1.33-.64,2-1,.2,5.92,10.72,4.1,10.72,4.1-1.67,2-4.18,5-8.27,6.4-5.37,1.79-6.43,4.33-6.43,4.33h0a12.51,12.51,0,0,1-10.44-1.85c-.95-1.25-1-7.6-.66-9.37s-3-1.72-6-3.25c-2.12-1.09-1.22-2.57-.53-3.33,0,0,2.8-.91,6.11,1.6l0,0a27.35,27.35,0,0,0,4.47,2.89A10.81,10.81,0,0,0,167.36,107.44Z"/><path class="cls-2" d="M179.89,99.49a7.34,7.34,0,0,1,.1,1.4,1.8,1.8,0,0,1-.27.84l-.66,0a1.06,1.06,0,0,0,0-1c-.76-2,.26-1.28-3.06-2.3,0,0-5.75-2.4-7.66-3.83a17.16,17.16,0,0,0-2.07-1.34c.66.15,1.19.28,1.47.32.09,0,.76-.06,1.71-.15,1.4-.15,3.42-.34,5-.36.3,0,.59,0,.85,0a2.8,2.8,0,0,1,1.37.39h0a4.93,4.93,0,0,1,1.73,1.78,8.56,8.56,0,0,1,.74,1.52,10.4,10.4,0,0,1,.4,1.19A12.34,12.34,0,0,1,179.89,99.49Z"/><path class="cls-2" d="M170.91,107a5.77,5.77,0,0,1-3.55.4,10.81,10.81,0,0,1-3-1,27.35,27.35,0,0,1-4.47-2.89l0,0a28.74,28.74,0,0,1-4.72-8.11c-2.19-5.42,0-8.46,0-8.46a8.2,8.2,0,0,0,2.37,4.43c2.47,2.64.94,2,5.79,4s3.23,4.73,5.78,6.86c2.43-1.49,4.18.94,6,.34,1.39-.45,3.5-.1,4-.88l.66,0a2.11,2.11,0,0,1-.18.27,3.51,3.51,0,0,1-.37.41,10,10,0,0,1-1.85,1.37c-.6.36-1.28.73-2,1.08s-1.32.65-2,1h0c-.77.36-1.52.73-2.21,1.09Z"/><path class="cls-2" d="M179.05,100.72a1.06,1.06,0,0,1,0,1c-.51.78-2.62.43-4,.88-1.78.6-3.53-1.83-6-.34-2.55-2.13-.93-4.85-5.78-6.86s-3.32-1.39-5.79-4a8.2,8.2,0,0,1-2.37-4.43,4,4,0,0,1,0-.85,4.83,4.83,0,0,1,.87-2.47c1.62-2.38,2.21,7.3,3.91,9.85.85-1.36,4.26-.68,6.36-.21a17.16,17.16,0,0,1,2.07,1.34C170.24,96,176,98.42,176,98.42,179.31,99.44,178.29,98.68,179.05,100.72Z"/><path class="cls-2" d="M177.61,159.44c-6.13.26-14.56-4.85-18.64-6.38s-10.17-.94-16.56-19.83l1.41-.6,30.47,23.24,2.31-.49C177,156.67,177.32,158,177.61,159.44Z"/><path class="cls-2" d="M176.6,155.38l-2.31.49-30.47-23.24-1.41.6c-8.83,21.33-12.63,33.11-13.66,56h-1.7s2.08-17.13-1.64-25.37l1.29-.34a21,21,0,0,1,1.37,4.52c3.92-18.38,11.62-38.68,27-56,0,0-7.39-7.57-.77-10.63a5.31,5.31,0,0,0-.52.49c-.69.76-1.59,2.24.53,3.33,3,1.53,6.3,1.49,6,3.25s-.29,8.12.66,9.37a17.19,17.19,0,0,1-4.75-4.87c-7.41,8.93-10.68,15.53-11.75,16.59S168.72,128.73,176.6,155.38Z"/><path class="cls-2" d="M165.14,92.72a9.83,9.83,0,0,1,1.12.53c-2.1-.47-5.51-1.15-6.36.21-1.7-2.55-2.29-12.23-3.91-9.85a4.83,4.83,0,0,0-.87,2.47,4,4,0,0,0,0,.85s-2.19,3,0,8.46a28.74,28.74,0,0,0,4.72,8.11c-3.31-2.51-6.11-1.6-6.11-1.6a5.31,5.31,0,0,1,.52-.49h0s2-.25,0-2.55-4.6-6.56-3.41-9.7-1.19-3.32-1.47-7.35c-.18-2.46,2.49-3.44,4.6-3.83l.36,0a5.08,5.08,0,0,0,2.12-.29,11.28,11.28,0,0,0,5-4.22c1.36-2,4.6-1.37,6-.86,0,0-5.3,4.1-3.32,7.58C168.33,87.36,165.14,92.72,165.14,92.72Z"/><path class="cls-2" d="M154.29,98.85c2,2.3,0,2.55,0,2.55-2.3-2.13-2.78-2.4-6.54-4.58s-3.93-8.27.15-13.46c1.31-4.42,3.25-5.53,6.11-5.39-2.11.39-4.78,1.37-4.6,3.83.28,4,2.66,4.2,1.47,7.35S152.24,96.55,154.29,98.85Z"/><path class="cls-2" d="M119.24,122h0a159.48,159.48,0,0,0,8-14.14c2.56-5.53.85-6.71,1.28-6.71,3-.34,12.86.68,13.23,17.1,0,0-6.42-3-9-1.7-2.3,1.17-12.27,10.49-12.66,10.11A3.45,3.45,0,0,0,119.24,122Z"/><path class="cls-2" d="M132.75,116.55c2.56-1.3,9,1.7,9,1.7-2,3.66-7.78,10.64-17,10.56-1.89-1.1-6.63-.77-6.63-.77a4.5,4.5,0,0,0,2-1.37,0,0,0,0,1,0,0C120.48,127,130.45,117.72,132.75,116.55Z"/><path class="cls-2" d="M134.19,135.29a1.91,1.91,0,0,1-.58,1.77c-2.2,2.4-6.58,8-12.3,8.38l0-.46C121.27,138.29,134.19,135.29,134.19,135.29Z"/><path class="cls-2" d="M114.89,119.66a1.49,1.49,0,0,0-.6,0c-1.71.43-4.64,1.16-5.54,3.16a1.5,1.5,0,0,0-.15.19c-1.37.59-6-20.19-6-20.19l-.09-.34c1.11-1.7,1-11.4,9.5-6.55,8.8-1.28,9.16-1.08,12.25.71s4.29,2.77,4.21,4.48c-.43,0,1.28,1.18-1.28,6.71a159.48,159.48,0,0,1-8,14.14,15.91,15.91,0,0,0-2.64-1.78A4.8,4.8,0,0,0,114.89,119.66Z"/><path class="cls-2" d="M117.12,128.64h0a5.45,5.45,0,0,0,1-.59s4.74-.33,6.63.77c4.22,2.19,9,4.27,9.44,6.48,0,0-12.92,3-12.92,9.69l0,.46a9.29,9.29,0,0,1-3.62-.46l-.64-.13c0-.06,0-.13.07-.2s-5.69-12.65-3.3-15.38h0a7.34,7.34,0,0,0,3.3-.62Z"/><path class="cls-2" d="M126.7,163.52l-1.29.34a7.45,7.45,0,0,0-3.29-3.82c-1.79,2-11.83,8.51-20,8a56.27,56.27,0,0,1-14.86-3.14l.73-2.22c4.68-3.49,32.85-3.92,32.85-3.92l.17-1.7c-1.45-3.74-3.49-10-5.87-11.23,0,0,1.47-.05,1.91-1l.64.13A169,169,0,0,1,126.7,163.52Z"/><path class="cls-2" d="M121,157.06l-.17,1.7s-28.17.43-32.85,3.92l-.73,2.22c-1.51-.5-3-1-4.38-1.46,1.11-3.06,8.51-6.72,13-8.08S116.07,152.12,121,157.06Z"/><path class="cls-2" d="M120.09,126.66a0,0,0,0,0,0,0,4.5,4.5,0,0,1-2,1.37,5.45,5.45,0,0,1-1,.59h0a7.34,7.34,0,0,1-3.3.62,10,10,0,0,1-1.38-.16,11.26,11.26,0,0,1-3-1.06,7.86,7.86,0,0,1-.71-1c-1.22-2.09-.48-3.5-.13-4a.34.34,0,0,0,.15-.19c.9-2,3.83-2.73,5.54-3.16a1.49,1.49,0,0,1,.6,0,4.8,4.8,0,0,1,1.69.56,15.91,15.91,0,0,1,2.64,1.78h0A3.45,3.45,0,0,1,120.09,126.66Z"/><path class="cls-2" d="M117.12,144.65c0,.07-.05.14-.07.2-.44.93-1.91,1-1.91,1-1.9-1.9-5-2.39-7.34-2.43l0-.81c0-3.66,4.6-13.36,4.6-13.36l0-.13a10,10,0,0,0,1.38.16h0C111.43,132,117.12,144.65,117.12,144.65Z"/><path class="cls-2" d="M112.44,129.1l0,.13s-4.6,9.7-4.6,13.36l0,.81a20.39,20.39,0,0,0-3.49.22h0c-3.79-3.36-8.69-6.77-11.87-5.37a5,5,0,0,1,.58-2.14s18.48-5.56,16.43-8.08A11.26,11.26,0,0,0,112.44,129.1Z"/><path class="cls-2" d="M115.14,145.83a7.36,7.36,0,0,1-5.34,3.34,66.27,66.27,0,0,0-5.5-5.54h0a20.39,20.39,0,0,1,3.49-.22C110.18,143.44,113.24,143.93,115.14,145.83Z"/><path class="cls-2" d="M108.73,127a7.86,7.86,0,0,0,.71,1c2,2.52-16.43,8.08-16.43,8.08-5.19-.25-15.06-3.57-5.28-15.91-.93-2.89-1.44-10,5.62-12.26,0,0,8-.39,9.28-5.1,0,0,4.6,20.78,6,20.19C108.25,123.53,107.51,124.94,108.73,127Z"/><path class="cls-2" d="M109.8,149.17a7.79,7.79,0,0,1-3.34-.19c-3.5-1-14.26-5-14-10.72,3.18-1.4,8.08,2,11.87,5.37A66.27,66.27,0,0,1,109.8,149.17Z"/><path class="cls-2" d="M102.54,102.51l.09.34c-1.28,4.71-9.28,5.1-9.28,5.1C96,102.51,99.9,100.81,102.54,102.51Z"/><path class="cls-3" d="M154.29,101.4c-2.3-2.13-2.78-2.4-6.54-4.58s-3.93-8.27.15-13.46c1.31-4.42,3.25-5.53,6.11-5.39l.36,0a5.08,5.08,0,0,0,2.12-.29,11.28,11.28,0,0,0,5-4.22c1.36-2,4.6-1.37,6-.86,2.64-2.72,7.07-2.63,11.58.26,5.87.68,6.72.6,6.55,3.57,1.7,2.64,4.26,5.88,1.7,9.11,3.92-1.11,5.7-1.7,6.51,1.49s1.15,2.94,1.32,4.64a14.19,14.19,0,0,1,5.11,1.19c.06.15.13.34.2.57.91,2.84,2.72,11.52-3.86,12.2-3.66,4.42-6.43,8-9.56,7.83-1.93,2.29-5.67,4-10.87,4.08a18.4,18.4,0,0,1-4.89,2.13,12.51,12.51,0,0,1-10.44-1.85,17.19,17.19,0,0,1-4.75-4.87c-7.41,8.93-10.68,15.53-11.75,16.59s24.31-.84,32.19,25.81c.38,1.29.72,2.64,1,4.06-6.13.26-14.56-4.85-18.64-6.38s-10.17-.94-16.56-19.83c-8.83,21.33-12.63,33.11-13.66,56h-1.7s2.08-17.13-1.64-25.37a7.45,7.45,0,0,0-3.29-3.82c-1.79,2-11.83,8.51-20,8a56.27,56.27,0,0,1-14.86-3.14c-1.51-.5-3-1-4.38-1.46,1.11-3.06,8.51-6.72,13-8.08s20.17-3.24,25.11,1.7c-1.45-3.74-3.49-10-5.87-11.23a7.36,7.36,0,0,1-5.34,3.34,7.79,7.79,0,0,1-3.34-.19c-3.5-1-14.26-5-14-10.72a5,5,0,0,1,.58-2.14c-5.19-.25-15.06-3.57-5.28-15.91-.93-2.89-1.44-10,5.62-12.26,2.64-5.44,6.55-7.14,9.19-5.44,1.11-1.7,1-11.4,9.5-6.55,8.8-1.28,9.16-1.08,12.25.71s4.29,2.77,4.21,4.48c3-.34,12.86.68,13.23,17.1-2,3.66-7.78,10.64-17,10.56,4.22,2.19,9,4.27,9.44,6.48a1.91,1.91,0,0,1-.58,1.77c-2.2,2.4-6.58,8-12.3,8.38a9.29,9.29,0,0,1-3.62-.46,169,169,0,0,1,9,18.54,21,21,0,0,1,1.37,4.52c3.92-18.38,11.62-38.68,27-56,0,0-7.39-7.57-.77-10.63"/><line class="cls-3" x1="143.82" y1="132.63" x2="174.29" y2="155.87"/><path class="cls-3" d="M156.49,77.71A16,16,0,0,0,154,78c-2.11.39-4.78,1.37-4.6,3.83.28,4,2.66,4.2,1.47,7.35s1.36,7.4,3.41,9.7,0,2.55,0,2.55h0a5.31,5.31,0,0,0-.52.49c-.69.76-1.59,2.24.53,3.33,3,1.53,6.3,1.49,6,3.25s-.29,8.12.66,9.37"/><path class="cls-3" d="M155.15,86.93s-2.19,3,0,8.46a28.74,28.74,0,0,0,4.72,8.11"/><path class="cls-3" d="M173.35,105.84c-.77.36-1.52.73-2.21,1.09l-.23.11a5.77,5.77,0,0,1-3.55.4,10.81,10.81,0,0,1-3-1,27.35,27.35,0,0,1-4.47-2.89l0,0c-3.31-2.51-6.11-1.6-6.11-1.6"/><path class="cls-3" d="M176.69,93.45a4.93,4.93,0,0,1,1.73,1.78,8.56,8.56,0,0,1,.74,1.52,10.4,10.4,0,0,1,.4,1.19,12.34,12.34,0,0,1,.33,1.55,7.34,7.34,0,0,1,.1,1.4,1.8,1.8,0,0,1-.27.84,2.11,2.11,0,0,1-.18.27,3.51,3.51,0,0,1-.37.41,10,10,0,0,1-1.85,1.37c-.6.36-1.28.73-2,1.08s-1.32.65-2,1"/><path class="cls-3" d="M167.56,72.63s-5.3,4.1-3.32,7.58c4.09,7.15.9,12.51.9,12.51a9.83,9.83,0,0,1,1.12.53,17.16,17.16,0,0,1,2.07,1.34C170.24,96,176,98.42,176,98.42c3.32,1,2.3.26,3.06,2.3a1.06,1.06,0,0,1,0,1c-.51.78-2.62.43-4,.88-1.78.6-3.53-1.83-6-.34-2.55-2.13-.93-4.85-5.78-6.86s-3.32-1.39-5.79-4a8.2,8.2,0,0,1-2.37-4.43,4,4,0,0,1,0-.85,4.83,4.83,0,0,1,.87-2.47c1.62-2.38,2.21,7.3,3.91,9.85.85-1.36,4.26-.68,6.36-.21.66.15,1.19.28,1.47.32.09,0,.76-.06,1.71-.15,1.4-.15,3.42-.34,5-.36.3,0,.59,0,.85,0a2.8,2.8,0,0,1,1.37.39"/><path class="cls-3" d="M187.39,85.57s-8.49,8.24-10.7,7.88h0"/><path class="cls-3" d="M195.22,91.7s-4.32.16-6.3,2.47-7.76,3.64-9.75,2.58"/><path class="cls-3" d="M171.35,119.69s1.06-2.54,6.43-4.33c4.09-1.37,6.6-4.44,8.27-6.4a11.84,11.84,0,0,1,1.34-1.41c1.62-1.3,3.66-.28,2.64,1.08s-2.92,4.86-2.92,4.86"/><path class="cls-3" d="M186.05,109s-10.52,1.82-10.72-4.1"/><path class="cls-3" d="M174.29,81.57s-1.69,10.86-2.94,11.49"/><line class="cls-3" x1="169.44" y1="84.12" x2="169.44" y2="93.42"/><path class="cls-3" d="M178.63,85.57s-2.2,6.38-4.17,7.49"/><path class="cls-3" d="M183.48,91.36s-3,3.72-5.65,3"/><path class="cls-3" d="M183.48,94.41s-3.22,1.64-5.06.82"/><path class="cls-3" d="M189.52,98.51s-5.82,2.2-9.63,1"/><path class="cls-3" d="M187.2,105.15s-5.62-.89-8-2.74"/><path class="cls-3" d="M181,106.42a5.12,5.12,0,0,1-3.63-2.64"/><path class="cls-3" d="M161.86,112s.52-4.59,2.51-5.53"/><path class="cls-3" d="M166.46,113.32a20.08,20.08,0,0,0,.9-5.88"/><path class="cls-3" d="M172.41,114.08s.73-5.43-1.5-7a1.37,1.37,0,0,0-.2-.13"/><path class="cls-3" d="M176.27,109.89a6.33,6.33,0,0,1-2.92-4h0"/><path class="cls-3" d="M161.27,84.72s.28,6.1,2.71,8"/><path class="cls-3" d="M200.53,93.46c-.09,0-4.12,0-4.2,3.66s.34,8.54.34,8.54"/><path class="cls-3" d="M120.84,158.76s-28.17.43-32.85,3.92"/><path class="cls-3" d="M134.19,135.29s-12.92,3-12.92,9.69"/><path class="cls-3" d="M109.81,149.18a0,0,0,0,0,0,0,66.27,66.27,0,0,0-5.5-5.54c-3.79-3.36-8.69-6.77-11.87-5.37"/><path class="cls-3" d="M141.73,118.25s-6.42-3-9-1.7c-2.3,1.17-12.27,10.49-12.66,10.11,0,0,0-.2.24-.49"/><path class="cls-3" d="M108.75,122.85a1.5,1.5,0,0,0-.15.19c-.35.49-1.09,1.9.13,4a7.86,7.86,0,0,0,.71,1c2,2.52-16.43,8.08-16.43,8.08"/><path class="cls-3" d="M117.12,128.63a5.45,5.45,0,0,0,1-.59s4.74-.33,6.63.77"/><path class="cls-3" d="M109.44,128a11.26,11.26,0,0,0,3,1.06,10,10,0,0,0,1.38.16,7.34,7.34,0,0,0,3.3-.62"/><path class="cls-3" d="M119.22,122h0l.84.33s5.09-3.64,7.65-7.65"/><path class="cls-3" d="M118.12,128a4.5,4.5,0,0,0,2-1.37,0,0,0,0,1,0,0,3.45,3.45,0,0,0-.85-4.65"/><path class="cls-3" d="M112.42,129.23s-4.6,9.7-4.6,13.36"/><path class="cls-3" d="M110,128.63a51.13,51.13,0,0,1-3.32,5.45"/><line class="cls-3" x1="114.89" y1="129.23" x2="115.65" y2="136.04"/><path class="cls-3" d="M117.12,128.63h0c.17.21,2.64,3.37,3,5.1"/><path class="cls-3" d="M120.67,124.21s2.38-.6,5.19-3.75"/><path class="cls-3" d="M116.58,120.22a47.91,47.91,0,0,1,2-5.53"/><path class="cls-3" d="M114.89,119.66s.5-5.48,1.18-6.34"/><path class="cls-3" d="M113.78,119.66a29.58,29.58,0,0,1,.25-13.24"/><path class="cls-3" d="M111.05,112.1s-.76,5.81,0,8.36"/><path class="cls-3" d="M101.3,121.43c1.33-.28,5.08.95,6.78,3"/><path class="cls-3" d="M103.05,125.23a23.86,23.86,0,0,1,5,.58"/><path class="cls-3" d="M99.48,129.23s6.26-2.27,9.25-2.2"/><path class="cls-3" d="M104.31,143.62a20.39,20.39,0,0,1,3.49-.22c2.38,0,5.44.53,7.34,2.43,0,0,1.47-.05,1.91-1,0-.06,0-.13.07-.2s-5.69-12.65-3.3-15.38"/><path class="cls-3" d="M93.35,108s8-.39,9.28-5.1c0,0,4.6,20.78,6,20.19a.34.34,0,0,0,.15-.19c.9-2,3.83-2.73,5.54-3.16a1.49,1.49,0,0,1,.6,0,4.8,4.8,0,0,1,1.69.56,15.91,15.91,0,0,1,2.64,1.78,159.48,159.48,0,0,0,8-14.14c2.56-5.53.85-6.71,1.28-6.71"/></g></svg>